<svg width="13" height="22" viewBox="0 0 13 22" fill="none" xmlns="http://www.w3.org/2000/svg">
<g clip-path="url(#clip0_1_131)">
<path d="M6.15562 15.7656C5.98596 15.7656 5.84093 15.7067 5.72052 15.5891C5.60012 15.4714 5.53992 15.3277 5.53992 15.1581C5.53992 14.9884 5.60286 14.8406 5.72873 14.7148L9.04529 11.4064L5.72873 8.09807C5.60286 7.97219 5.53992 7.82442 5.53992 7.65477C5.53992 7.48511 5.60012 7.34144 5.72052 7.22378C5.84093 7.10611 5.98596 7.04728 6.15562 7.04728C6.31433 7.04728 6.45662 7.10474 6.5825 7.21967L10.3259 10.9467C10.4573 11.0671 10.523 11.2203 10.523 11.4064C10.523 11.5816 10.4573 11.7348 10.3259 11.8661L6.5825 15.5932C6.46757 15.7081 6.32527 15.7656 6.15562 15.7656Z" fill="#0066CC"/>
</g>
<defs>
<clipPath id="clip0_1_131">
<rect width="7.13" height="21" fill="white" transform="matrix(1 0 0 -1 5.53992 21.89)"/>
</clipPath>
</defs>
</svg>
