<svg width="13" height="21" viewBox="0 0 13 21" fill="none" xmlns="http://www.w3.org/2000/svg">
<g clip-path="url(#clip0_1_239)">
<path d="M6.38566 14.8756C6.216 14.8756 6.07097 14.8167 5.95056 14.6991C5.83016 14.5814 5.76996 14.4377 5.76996 14.2681C5.76996 14.0984 5.8329 13.9506 5.95877 13.8248L9.27533 10.5164L5.95877 7.20807C5.8329 7.08219 5.76996 6.93442 5.76996 6.76477C5.76996 6.59511 5.83016 6.45144 5.95056 6.33378C6.07097 6.21611 6.216 6.15728 6.38566 6.15728C6.54437 6.15728 6.68666 6.21474 6.81254 6.32967L10.556 10.0567C10.6873 10.1771 10.753 10.3303 10.753 10.5164C10.753 10.6916 10.6873 10.8448 10.556 10.9761L6.81254 14.7032C6.69761 14.8181 6.55532 14.8756 6.38566 14.8756Z" fill="#0066CC"/>
</g>
<defs>
<clipPath id="clip0_1_239">
<rect width="7.13" height="21" fill="white" transform="matrix(1 0 0 -1 5.76996 21)"/>
</clipPath>
</defs>
</svg>
