<svg width="17" height="30" viewBox="0 0 17 30" fill="none" xmlns="http://www.w3.org/2000/svg">
<g clip-path="url(#clip0_1_36)">
<path d="M7.62414 20.6417C7.41082 20.6417 7.22846 20.5677 7.07706 20.4198C6.92567 20.2718 6.84998 20.0912 6.84998 19.8779C6.84998 19.6646 6.92911 19.4788 7.08739 19.3205L11.2576 15.1606L7.08739 11.0008C6.92911 10.8425 6.84998 10.6567 6.84998 10.4434C6.84998 10.23 6.92567 10.0494 7.07706 9.90145C7.22846 9.7535 7.41082 9.67953 7.62414 9.67953C7.82371 9.67953 8.00262 9.75178 8.1609 9.89629L12.8678 14.5826C13.033 14.734 13.1156 14.9267 13.1156 15.1606C13.1156 15.3808 13.033 15.5735 12.8678 15.7387L8.1609 20.425C8.01639 20.5695 7.83747 20.6417 7.62414 20.6417Z" fill="#0066CC"/>
</g>
<defs>
<clipPath id="clip0_1_36">
<rect width="9.51" height="29" fill="white" transform="matrix(1 0 0 -1 6.84998 29.64)"/>
</clipPath>
</defs>
</svg>
