<svg width="13" height="22" viewBox="0 0 13 22" fill="none" xmlns="http://www.w3.org/2000/svg">
<g clip-path="url(#clip0_1_137)">
<path d="M5.76566 15.7656C5.596 15.7656 5.45097 15.7067 5.33057 15.5891C5.21016 15.4714 5.14996 15.3277 5.14996 15.1581C5.14996 14.9884 5.2129 14.8406 5.33878 14.7148L8.65534 11.4064L5.33878 8.09807C5.2129 7.97219 5.14996 7.82442 5.14996 7.65477C5.14996 7.48511 5.21016 7.34144 5.33057 7.22378C5.45097 7.10611 5.596 7.04728 5.76566 7.04728C5.92438 7.04728 6.06667 7.10474 6.19255 7.21967L9.93599 10.9467C10.0673 11.0671 10.133 11.2203 10.133 11.4064C10.133 11.5816 10.0673 11.7348 9.93599 11.8661L6.19255 15.5932C6.07762 15.7081 5.93532 15.7656 5.76566 15.7656Z" fill="#0066CC"/>
</g>
<defs>
<clipPath id="clip0_1_137">
<rect width="7.13" height="21" fill="white" transform="matrix(1 0 0 -1 5.14996 21.89)"/>
</clipPath>
</defs>
</svg>
