<svg width="17" height="30" viewBox="0 0 17 30" fill="none" xmlns="http://www.w3.org/2000/svg">
<g clip-path="url(#clip0_1_29)">
<path d="M7.59417 20.6417C7.38085 20.6417 7.19849 20.5677 7.0471 20.4198C6.8957 20.2718 6.82001 20.0912 6.82001 19.8779C6.82001 19.6646 6.89914 19.4788 7.05742 19.3205L11.2276 15.1606L7.05742 11.0008C6.89914 10.8425 6.82001 10.6567 6.82001 10.4434C6.82001 10.23 6.8957 10.0494 7.0471 9.90145C7.19849 9.7535 7.38085 9.67953 7.59417 9.67953C7.79374 9.67953 7.97266 9.75178 8.13093 9.89629L12.8379 14.5826C13.003 14.734 13.0856 14.9267 13.0856 15.1606C13.0856 15.3808 13.003 15.5735 12.8379 15.7387L8.13093 20.425C7.98642 20.5695 7.8075 20.6417 7.59417 20.6417Z" fill="#0066CC"/>
</g>
<defs>
<clipPath id="clip0_1_29">
<rect width="9.51" height="29" fill="white" transform="matrix(1 0 0 -1 6.82001 29.64)"/>
</clipPath>
</defs>
</svg>
