<svg width="13" height="22" viewBox="0 0 13 22" fill="none" xmlns="http://www.w3.org/2000/svg">
<g clip-path="url(#clip0_1_110)">
<path d="M5.9957 15.7656C5.82604 15.7656 5.68101 15.7067 5.5606 15.5891C5.4402 15.4714 5.38 15.3277 5.38 15.1581C5.38 14.9884 5.44294 14.8406 5.56881 14.7148L8.88537 11.4064L5.56881 8.09807C5.44294 7.97219 5.38 7.82442 5.38 7.65477C5.38 7.48511 5.4402 7.34144 5.5606 7.22378C5.68101 7.10611 5.82604 7.04728 5.9957 7.04728C6.15441 7.04728 6.2967 7.10474 6.42258 7.21967L10.166 10.9467C10.2974 11.0671 10.363 11.2203 10.363 11.4064C10.363 11.5816 10.2974 11.7348 10.166 11.8661L6.42258 15.5932C6.30765 15.7081 6.16535 15.7656 5.9957 15.7656Z" fill="#0066CC"/>
</g>
<defs>
<clipPath id="clip0_1_110">
<rect width="7.13" height="21" fill="white" transform="matrix(1 0 0 -1 5.38 21.89)"/>
</clipPath>
</defs>
</svg>
