<svg width="27" height="16" viewBox="0 0 27 16" fill="none" xmlns="http://www.w3.org/2000/svg">
<g clip-path="url(#clip0_1_252)">
<path d="M13.9207 15.1543C13.0946 15.1543 12.2967 15.1484 11.5271 15.1365C10.7574 15.1246 10.0338 15.1077 9.3563 15.0857C8.67877 15.0637 8.06364 15.0376 7.51091 15.0073C6.95818 14.9771 6.48123 14.9434 6.08006 14.9062C5.67889 14.8691 5.36984 14.8295 5.15291 14.7874C4.93598 14.7452 4.82751 14.7015 4.82751 14.6562C4.82751 14.6107 4.93598 14.5669 5.15291 14.5249C5.36984 14.4829 5.67741 14.4434 6.07561 14.4062C6.47381 14.3691 6.94927 14.3354 7.50199 14.3052C8.05472 14.2749 8.66985 14.2488 9.34739 14.2268C10.0249 14.2048 10.7485 14.1879 11.5182 14.176C12.2878 14.1641 13.0857 14.1582 13.9118 14.1582C14.7439 14.1582 15.5448 14.1641 16.3144 14.176C17.0841 14.1879 17.8062 14.2048 18.4807 14.2268C19.1553 14.2488 19.7704 14.2749 20.3261 14.3052C20.8818 14.3354 21.3603 14.3691 21.7614 14.4062C22.1626 14.4434 22.4717 14.4829 22.6886 14.5249C22.9055 14.5669 23.014 14.6107 23.014 14.6562C23.014 14.7015 22.9055 14.7452 22.6886 14.7874C22.4717 14.8295 22.1626 14.8691 21.7614 14.9062C21.3603 14.9434 20.8833 14.9771 20.3306 15.0073C19.7779 15.0376 19.1627 15.0637 18.4852 15.0857C17.8077 15.1077 17.0855 15.1246 16.3189 15.1365C15.5522 15.1484 14.7528 15.1543 13.9207 15.1543ZM12.2982 14.8447L17.3084 14.6821C17.4332 14.6782 17.515 14.6729 17.5536 14.6663C17.5922 14.6596 17.5907 14.6529 17.5491 14.6462C17.5075 14.6396 17.4273 14.6343 17.3084 14.6304L12.2982 14.4678C12.1734 14.4635 12.0427 14.4618 11.906 14.4624C11.7693 14.4631 11.6534 14.4656 11.5583 14.47C11.4632 14.4744 11.4157 14.4803 11.4157 14.4878V14.8242C11.4157 14.8317 11.4602 14.8378 11.5494 14.8425C11.6385 14.8472 11.7514 14.8499 11.8881 14.8503C12.0248 14.8508 12.1615 14.849 12.2982 14.8447Z" fill="#1D1D1F"/>
</g>
<defs>
<clipPath id="clip0_1_252">
<rect width="21.792" height="1" fill="white" transform="matrix(1 0 0 -1 4.47 15.25)"/>
</clipPath>
</defs>
</svg>
