<svg width="22" height="15" viewBox="0 0 22 15" fill="none" xmlns="http://www.w3.org/2000/svg">
<g clip-path="url(#clip0_1_270)">
<path d="M11.7168 12.9102C11.0833 12.9102 10.4715 12.827 9.88135 12.6606C9.29118 12.4943 8.73633 12.2573 8.2168 11.9497C7.69727 11.6421 7.22559 11.2764 6.80176 10.8525C6.37793 10.4287 6.01221 9.95703 5.70459 9.4375C5.39697 8.91797 5.15999 8.36312 4.99365 7.77295C4.82731 7.18278 4.74414 6.57096 4.74414 5.9375C4.74414 5.29948 4.82731 4.68652 4.99365 4.09863C5.15999 3.51074 5.39583 2.95703 5.70117 2.4375C6.00651 1.91797 6.37109 1.44629 6.79492 1.02246C7.21875 0.598633 7.69043 0.23291 8.20996 -0.074707C8.72949 -0.382324 9.28434 -0.619303 9.87451 -0.785645C10.4647 -0.951986 11.0765 -1.03516 11.71 -1.03516C12.348 -1.03516 12.9621 -0.951986 13.5522 -0.785645C14.1424 -0.619303 14.6961 -0.382324 15.2134 -0.074707C15.7306 0.23291 16.2023 0.598633 16.6284 1.02246C17.0545 1.44629 17.4214 1.91797 17.729 2.4375C18.0366 2.95703 18.2736 3.51074 18.4399 4.09863C18.6063 4.68652 18.6895 5.29948 18.6895 5.9375C18.6895 6.57096 18.6063 7.18278 18.4399 7.77295C18.2736 8.36312 18.0366 8.91797 17.729 9.4375C17.4214 9.95703 17.0557 10.4287 16.6318 10.8525C16.208 11.2764 15.7363 11.6421 15.2168 11.9497C14.6973 12.2573 14.1436 12.4943 13.5557 12.6606C12.9678 12.827 12.3548 12.9102 11.7168 12.9102ZM10.4727 8.57617L14.3145 6.2998C14.4102 6.24512 14.4728 6.17106 14.5024 6.07764C14.5321 5.98421 14.5309 5.89079 14.499 5.79736C14.4671 5.70394 14.4056 5.62988 14.3145 5.5752L10.4727 3.29883C10.377 3.23958 10.2767 3.21452 10.1719 3.22363C10.0671 3.23275 9.97819 3.26807 9.90527 3.32959C9.83236 3.39111 9.7959 3.47428 9.7959 3.5791V8.28906C9.7959 8.39388 9.83008 8.47933 9.89844 8.54541C9.9668 8.61149 10.0534 8.64795 10.1582 8.65479C10.263 8.66162 10.3678 8.63542 10.4727 8.57617Z" fill="#1D1D1F"/>
</g>
<defs>
<clipPath id="clip0_1_270">
<rect width="16.71" height="14" fill="white" transform="matrix(1 0 0 -1 4.47003 14.25)"/>
</clipPath>
</defs>
</svg>
