<svg width="14" height="21" viewBox="0 0 14 21" fill="none" xmlns="http://www.w3.org/2000/svg">
<g clip-path="url(#clip0_1_206)">
<path d="M6.5257 14.8755C6.35604 14.8755 6.21101 14.8167 6.0906 14.699C5.9702 14.5814 5.91 14.4377 5.91 14.2681C5.91 14.0984 5.97294 13.9506 6.09881 13.8248L9.41537 10.5164L6.09881 7.20805C5.97294 7.08218 5.91 6.93441 5.91 6.76475C5.91 6.59509 5.9702 6.45143 6.0906 6.33376C6.21101 6.21609 6.35604 6.15726 6.5257 6.15726C6.68441 6.15726 6.8267 6.21473 6.95258 6.32966L10.696 10.0567C10.8274 10.1771 10.893 10.3303 10.893 10.5164C10.893 10.6915 10.8274 10.8448 10.696 10.9761L6.95258 14.7032C6.83765 14.8181 6.69536 14.8755 6.5257 14.8755Z" fill="#2997FF"/>
</g>
<defs>
<clipPath id="clip0_1_206">
<rect width="7.13" height="21" fill="white" transform="matrix(1 0 0 -1 5.91 21)"/>
</clipPath>
</defs>
</svg>
