<svg width="14" height="21" viewBox="0 0 14 21" fill="none" xmlns="http://www.w3.org/2000/svg">
<g clip-path="url(#clip0_1_233)">
<path d="M6.52561 14.8756C6.35595 14.8756 6.21092 14.8167 6.09052 14.6991C5.97011 14.5814 5.90991 14.4377 5.90991 14.2681C5.90991 14.0984 5.97285 13.9506 6.09873 13.8248L9.41529 10.5164L6.09873 7.20807C5.97285 7.08219 5.90991 6.93442 5.90991 6.76477C5.90991 6.59511 5.97011 6.45144 6.09052 6.33378C6.21092 6.21611 6.35595 6.15728 6.52561 6.15728C6.68432 6.15728 6.82662 6.21474 6.95249 6.32967L10.6959 10.0567C10.8273 10.1771 10.893 10.3303 10.893 10.5164C10.893 10.6916 10.8273 10.8448 10.6959 10.9761L6.95249 14.7032C6.83756 14.8181 6.69527 14.8756 6.52561 14.8756Z" fill="#0066CC"/>
</g>
<defs>
<clipPath id="clip0_1_233">
<rect width="7.13" height="21" fill="white" transform="matrix(1 0 0 -1 5.90991 21)"/>
</clipPath>
</defs>
</svg>
