<svg width="13" height="21" viewBox="0 0 13 21" fill="none" xmlns="http://www.w3.org/2000/svg">
<g clip-path="url(#clip0_1_212)">
<path d="M6.38567 14.8755C6.21601 14.8755 6.07098 14.8167 5.95057 14.699C5.83017 14.5814 5.76997 14.4377 5.76997 14.2681C5.76997 14.0984 5.83291 13.9506 5.95878 13.8248L9.27535 10.5164L5.95878 7.20805C5.83291 7.08218 5.76997 6.93441 5.76997 6.76475C5.76997 6.59509 5.83017 6.45143 5.95057 6.33376C6.07098 6.21609 6.21601 6.15726 6.38567 6.15726C6.54438 6.15726 6.68668 6.21473 6.81255 6.32966L10.556 10.0567C10.6873 10.1771 10.753 10.3303 10.753 10.5164C10.753 10.6915 10.6873 10.8448 10.556 10.9761L6.81255 14.7032C6.69762 14.8181 6.55533 14.8755 6.38567 14.8755Z" fill="#2997FF"/>
</g>
<defs>
<clipPath id="clip0_1_212">
<rect width="7.13" height="21" fill="white" transform="matrix(1 0 0 -1 5.76997 21)"/>
</clipPath>
</defs>
</svg>
