<svg width="30" height="39" viewBox="0 0 30 39" fill="none" xmlns="http://www.w3.org/2000/svg">
<g clip-path="url(#clip0_1_325)">
<path d="M10.9575 29.9745C9.96208 29.9745 9.00065 29.8438 8.07324 29.5824C7.14583 29.321 6.27393 28.9486 5.45752 28.4652C4.64111 27.9818 3.8999 27.4071 3.23389 26.7411C2.56787 26.0751 1.99316 25.3339 1.50977 24.5175C1.02637 23.701 0.653971 22.8291 0.392578 21.9017C0.131185 20.9743 0.000488281 20.0129 0.000488281 19.0175C0.000488281 18.0149 0.131185 17.0516 0.392578 16.1278C0.653971 15.204 1.02458 14.3339 1.50439 13.5175C1.98421 12.701 2.55713 11.9598 3.22314 11.2938C3.88916 10.6278 4.63037 10.0531 5.44678 9.5697C6.26318 9.0863 7.13509 8.71391 8.0625 8.45251C8.98991 8.19112 9.95133 8.06042 10.9468 8.06042C11.9494 8.06042 12.9144 8.19112 13.8418 8.45251C14.7692 8.71391 15.6393 9.0863 16.4521 9.5697C17.265 10.0531 18.0062 10.6278 18.6758 11.2938C19.3454 11.9598 19.9219 12.701 20.4053 13.5175C20.8887 14.3339 21.2611 15.204 21.5225 16.1278C21.7839 17.0516 21.9146 18.0149 21.9146 19.0175C21.9146 20.0129 21.7839 20.9743 21.5225 21.9017C21.2611 22.8291 20.8887 23.701 20.4053 24.5175C19.9219 25.3339 19.3472 26.0751 18.6812 26.7411C18.0151 27.4071 17.2739 27.9818 16.4575 28.4652C15.6411 28.9486 14.771 29.321 13.8472 29.5824C12.9233 29.8438 11.9601 29.9745 10.9575 29.9745ZM10.9575 28.1483C11.9744 28.1483 12.9395 27.9961 13.8525 27.6918C14.7656 27.3874 15.6017 26.9559 16.3608 26.3973C17.12 25.8387 17.7788 25.1799 18.3374 24.4208C18.896 23.6617 19.3275 22.8256 19.6318 21.9125C19.9362 20.9994 20.0884 20.0344 20.0884 19.0175C20.0884 18.0005 19.9344 17.0355 19.6265 16.1224C19.3185 15.2094 18.8853 14.3733 18.3267 13.6141C17.7681 12.855 17.1092 12.1962 16.3501 11.6376C15.591 11.079 14.7549 10.6475 13.8418 10.3431C12.9287 10.0388 11.9637 9.8866 10.9468 9.8866C9.92985 9.8866 8.96663 10.0388 8.05713 10.3431C7.14762 10.6475 6.31331 11.079 5.5542 11.6376C4.79508 12.1962 4.13802 12.855 3.58301 13.6141C3.02799 14.3733 2.59831 15.2094 2.29395 16.1224C1.98958 17.0355 1.8374 18.0005 1.8374 19.0175C1.8374 20.0344 1.98958 20.9994 2.29395 21.9125C2.59831 22.8256 3.02799 23.6617 3.58301 24.4208C4.13802 25.1799 4.79508 25.8387 5.5542 26.3973C6.31331 26.9559 7.14941 27.3874 8.0625 27.6918C8.97559 27.9961 9.94059 28.1483 10.9575 28.1483ZM9.06689 22.9706C8.90934 23.0637 8.75358 23.1049 8.59961 23.0941C8.44564 23.0834 8.31673 23.0279 8.21289 22.9276C8.10905 22.8274 8.05713 22.6984 8.05713 22.5409V15.5048C8.05713 15.34 8.11084 15.2111 8.21826 15.118C8.32568 15.0249 8.45817 14.973 8.61572 14.9623C8.77327 14.9515 8.92367 14.9891 9.06689 15.0751L14.8247 18.4803C14.9608 18.5591 15.0521 18.6683 15.0986 18.808C15.1452 18.9476 15.147 19.0873 15.104 19.2269C15.061 19.3666 14.9679 19.4794 14.8247 19.5653L9.06689 22.9706Z" fill="#1D1D1D"/>
</g>
<defs>
<clipPath id="clip0_1_325">
<rect width="25.75" height="22" fill="white" transform="matrix(1 0 0 -1 0 32.08)"/>
</clipPath>
</defs>
</svg>
