<svg width="31" height="44" viewBox="0 0 31 44" fill="none" xmlns="http://www.w3.org/2000/svg">
<g clip-path="url(#clip0_1_578)">
<path d="M20.1835 16.0283H19.163C19.0536 15.2173 18.6573 14.4723 18.0458 13.9284C17.4344 13.3845 16.6483 13.0776 15.83 13.0635C15.0118 13.0776 14.2257 13.3845 13.6142 13.9284C13.0028 14.4723 12.6064 15.2173 12.497 16.0283H11.477C10.9158 16.0286 10.3777 16.2517 9.98076 16.6485C9.58385 17.0452 9.3606 17.5833 9.36002 18.1445V25.86C9.36052 26.4211 9.58362 26.9591 9.98036 27.356C10.3771 27.7528 10.9151 27.976 11.4762 27.9767H20.1832C20.7445 27.9762 21.2826 27.753 21.6795 27.3562C22.0763 26.9593 22.2995 26.4212 22.3 25.86V18.1445C22.2994 17.5834 22.0763 17.0454 21.6794 16.6486C21.2826 16.2519 20.7446 16.0288 20.1835 16.0283ZM15.83 14.1631C16.3574 14.1745 16.8651 14.3656 17.2692 14.7048C17.6733 15.0439 17.9495 15.5108 18.0522 16.0283H13.6078C13.7105 15.5108 13.9868 15.0439 14.3908 14.7048C14.7949 14.3656 15.3026 14.1745 15.83 14.1631ZM21.2 25.86C21.1997 26.1296 21.0925 26.388 20.902 26.5787C20.7114 26.7693 20.453 26.8767 20.1834 26.8771H11.4765C11.207 26.8766 10.9486 26.7693 10.758 26.5786C10.5675 26.388 10.4603 26.1295 10.46 25.86V18.1445C10.4603 17.875 10.5675 17.6166 10.7581 17.426C10.9487 17.2354 11.2071 17.1282 11.4766 17.1279H20.1836C20.4531 17.1282 20.7114 17.2355 20.902 17.4261C21.0925 17.6166 21.1997 17.875 21.2 18.1445V25.86Z" fill="white" fill-opacity="0.8"/>
</g>
<defs>
<clipPath id="clip0_1_578">
<rect width="14" height="44" fill="white" transform="translate(8.83002)"/>
</clipPath>
</defs>
</svg>
