<svg width="32" height="44" viewBox="0 0 32 44" fill="none" xmlns="http://www.w3.org/2000/svg">
<g clip-path="url(#clip0_1_572)">
<path d="M22.9871 27.202L19.1171 23.332C19.8181 22.403 20.2391 21.251 20.2391 20C20.2391 16.94 17.7501 14.45 14.6891 14.45C11.6291 14.45 9.13914 16.94 9.13914 20C9.13914 23.061 11.6291 25.55 14.6891 25.55C15.9401 25.55 17.0921 25.129 18.0211 24.428L21.8911 28.298C22.0421 28.449 22.2411 28.526 22.4391 28.526C22.6371 28.526 22.8351 28.45 22.9871 28.298C23.2901 27.995 23.2901 27.505 22.9871 27.202ZM10.2391 20C10.2391 17.546 12.2361 15.55 14.6891 15.55C17.1431 15.55 19.1391 17.547 19.1391 20C19.1391 22.453 17.1431 24.45 14.6891 24.45C12.2351 24.45 10.2391 22.454 10.2391 20Z" fill="white" fill-opacity="0.8"/>
</g>
<defs>
<clipPath id="clip0_1_572">
<rect width="15" height="44" fill="white" transform="translate(8.68915)"/>
</clipPath>
</defs>
</svg>
