<svg width="60" height="44" viewBox="0 0 60 44" fill="none" xmlns="http://www.w3.org/2000/svg">
<g clip-path="url(#clip0_1_546)">
<path d="M20.7007 19.6836H21.6617V20.6206H21.7557C21.9427 20.0056 22.6697 19.5726 23.5077 19.5726C23.6717 19.5726 23.8827 19.5836 24.0117 19.6016V20.6096C23.9297 20.5856 23.5657 20.5506 23.3667 20.5506C22.4057 20.5506 21.7087 21.1956 21.7087 22.0856V25.9996H20.7007V19.6836ZM48.8357 19.5726C50.1597 19.5726 51.0797 20.2286 51.2147 21.2656H50.2187C50.0837 20.7616 49.5917 20.4276 48.8297 20.4276C48.0797 20.4276 47.4937 20.8086 47.4937 21.3706C47.4937 21.8046 47.8457 22.0746 48.5897 22.2556L49.5627 22.4906C50.7517 22.7776 51.3257 23.2926 51.3257 24.2016C51.3257 25.3316 50.2307 26.1116 48.7947 26.1116C47.3887 26.1116 46.4217 25.4376 46.3107 24.3886H47.3477C47.5177 24.9216 48.0217 25.2616 48.8297 25.2616C49.6797 25.2616 50.2887 24.8576 50.2887 24.2776C50.2887 23.8436 49.9607 23.5506 49.2867 23.3866L48.2027 23.1226C47.0197 22.8356 46.4807 22.3266 46.4807 21.4126C46.4807 20.3636 47.4937 19.5726 48.8357 19.5726ZM42.1707 25.2036C41.0157 25.2036 40.3247 24.3186 40.3247 22.8416C40.3247 21.3706 41.0217 20.4806 42.1707 20.4806C43.3127 20.4806 44.0277 21.3946 44.0277 22.8416C44.0277 24.3006 43.3187 25.2036 42.1707 25.2036ZM44.0047 17.1756V20.6796H43.9167C43.5587 19.9886 42.8147 19.5726 41.9357 19.5726C40.3307 19.5726 39.2817 20.8616 39.2817 22.8416C39.2817 24.8286 40.3187 26.1116 41.9357 26.1116C42.8087 26.1116 43.5587 25.6956 43.9577 24.9926H44.0517V25.9996H45.0127V17.1756H44.0047ZM35.0037 25.2036C33.8087 25.2036 33.1347 24.3356 33.1347 22.8416C33.1347 21.3416 33.8087 20.4806 35.0037 20.4806C36.1997 20.4806 36.8727 21.3416 36.8727 22.8416C36.8727 24.3356 36.1997 25.2036 35.0037 25.2036ZM35.0037 19.5726C33.2047 19.5726 32.0917 20.8086 32.0917 22.8416C32.0917 24.8696 33.2047 26.1116 35.0037 26.1116C36.8027 26.1116 37.9157 24.8696 37.9157 22.8416C37.9157 20.8086 36.8027 19.5726 35.0037 19.5726ZM17.9327 25.9996H18.9407V19.6836H17.9327V25.9996ZM17.7337 17.7616C17.7337 17.3746 18.0507 17.0586 18.4367 17.0586C18.8237 17.0586 19.1397 17.3746 19.1397 17.7616C19.1397 18.1486 18.8237 18.4646 18.4367 18.4646C18.0507 18.4646 17.7337 18.1486 17.7337 17.7616ZM11.5967 22.6836L12.9207 18.9106H13.0137L14.3387 22.6836H11.5967ZM13.4887 17.5446H12.4457L9.32874 25.9996H10.4357L11.2857 23.5796H14.6487L15.4987 25.9996H16.6057L13.4887 17.5446ZM28.3567 22.0446H26.4927V18.4826H28.3567C29.5807 18.4826 30.2547 19.1216 30.2547 20.2816C30.2547 21.4006 29.5577 22.0446 28.3567 22.0446ZM28.6317 17.5446H25.4387V25.9996H26.4927V22.9826H28.6197C30.2077 22.9826 31.3387 21.8636 31.3387 20.2816C31.3387 18.6696 30.2317 17.5446 28.6317 17.5446Z" fill="white" fill-opacity="0.8"/>
</g>
<defs>
<clipPath id="clip0_1_546">
<rect width="43" height="44" fill="white" transform="translate(8.98541)"/>
</clipPath>
</defs>
</svg>
