<svg width="52" height="44" viewBox="0 0 52 44" fill="none" xmlns="http://www.w3.org/2000/svg">
<path d="M37.6857 17.1758H38.6937V20.6798H38.7877C39.1037 19.9828 39.7657 19.5718 40.7327 19.5718C42.0687 19.5718 42.9127 20.4278 42.9127 21.9098V25.9998H41.9047V22.1558C41.9047 21.0368 41.4007 20.4808 40.4457 20.4808C39.3147 20.4808 38.6937 21.1958 38.6937 22.2618V25.9998H37.6857V17.1758ZM35.2657 21.6168C35.1017 20.9898 34.5447 20.4808 33.6367 20.4808C32.4997 20.4808 31.7847 21.3888 31.7847 22.8188C31.7847 24.2778 32.5117 25.2028 33.6367 25.2028C34.4857 25.2028 35.0777 24.8108 35.2657 24.0958H36.2847C36.1027 25.2558 35.1597 26.1118 33.6427 26.1118C31.8727 26.1118 30.7417 24.8278 30.7417 22.8188C30.7417 20.8498 31.8667 19.5718 33.6367 19.5718C35.1717 19.5718 36.1087 20.4918 36.2847 21.6168H35.2657ZM28.7327 18.0488V19.6838H30.1397V20.5278H28.7327V24.1018C28.7327 24.8458 29.0147 25.1618 29.6707 25.1618C29.8527 25.1618 29.9517 25.1558 30.1397 25.1388V25.9888C29.9397 26.0238 29.7467 26.0468 29.5477 26.0468C28.2467 26.0468 27.7257 25.5668 27.7257 24.3598V20.5278H26.7057V19.6838H27.7257V18.0488H28.7327ZM24.5327 23.6448V23.0648L22.8337 23.1758C21.8727 23.2398 21.4507 23.5738 21.4507 24.2068C21.4507 24.8518 21.9957 25.2268 22.7277 25.2268C23.7657 25.2268 24.5327 24.5468 24.5327 23.6448ZM20.4077 24.2308C20.4077 23.0998 21.2397 22.4488 22.7107 22.3618L24.5327 22.2498V21.6758C24.5327 20.8968 24.0467 20.4688 23.1027 20.4688C22.3477 20.4688 21.8197 20.7558 21.6797 21.2538H20.6597C20.7947 20.2398 21.7907 19.5718 23.1387 19.5718C24.6797 19.5718 25.5407 20.3638 25.5407 21.6758V25.9998H24.5797V25.0688H24.4857C24.0757 25.7418 23.3847 26.1118 22.5407 26.1118C21.3157 26.1118 20.4077 25.3848 20.4077 24.2308ZM12.7237 25.9998H11.7277L9.42474 17.5448H10.5257L12.2077 24.4178H12.2777L14.1707 17.5448H15.2367L17.1297 24.4178H17.1997L18.8817 17.5448H19.9827L17.6807 25.9998H16.6847L14.7387 19.3258H14.6687L12.7237 25.9998Z" fill="white" fill-opacity="0.8"/>
</svg>
