<svg width="55" height="44" viewBox="0 0 55 44" fill="none" xmlns="http://www.w3.org/2000/svg">
<path d="M41.276 22.3203H44.756C44.733 21.2013 44.065 20.4634 43.063 20.4634C42.055 20.4634 41.352 21.2013 41.276 22.3203ZM45.735 24.3653C45.442 25.4433 44.458 26.1113 43.075 26.1113C41.323 26.1113 40.227 24.8453 40.227 22.8473C40.227 20.8613 41.34 19.5723 43.075 19.5723C44.78 19.5723 45.817 20.7854 45.817 22.7484V23.1343H41.276V23.1813C41.329 24.4293 42.026 25.2204 43.098 25.2204C43.913 25.2204 44.464 24.9223 44.727 24.3653H45.735ZM33.453 19.6833H34.414V20.6793H34.508C34.824 19.9823 35.44 19.5723 36.406 19.5723C37.824 19.5723 38.615 20.4103 38.615 21.9103V26.0003H37.608V22.1563C37.608 21.0193 37.127 20.4804 36.119 20.4804C35.111 20.4804 34.461 21.1543 34.461 22.2613V26.0003H33.453V19.6833ZM30.954 22.8413C30.954 21.3413 30.28 20.4804 29.085 20.4804C27.889 20.4804 27.215 21.3413 27.215 22.8413C27.215 24.3363 27.889 25.2034 29.085 25.2034C30.28 25.2034 30.954 24.3363 30.954 22.8413ZM26.172 22.8413C26.172 20.8083 27.286 19.5723 29.085 19.5723C30.883 19.5723 31.997 20.8083 31.997 22.8413C31.997 24.8693 30.883 26.1113 29.085 26.1113C27.286 26.1113 26.172 24.8693 26.172 22.8413ZM19.536 17.1754H20.544V20.6793H20.637C20.954 19.9823 21.616 19.5723 22.583 19.5723C23.919 19.5723 24.762 20.4273 24.762 21.9103V26.0003H23.755V22.1563C23.755 21.0373 23.251 20.4804 22.296 20.4804C21.165 20.4804 20.544 21.1953 20.544 22.2613V26.0003H19.536V17.1754ZM13.521 22.0453H15.384C16.586 22.0453 17.283 21.4003 17.283 20.2813C17.283 19.1213 16.609 18.4823 15.384 18.4823H13.521V22.0453ZM15.66 17.5453C17.259 17.5453 18.367 18.6703 18.367 20.2813C18.367 21.8633 17.236 22.9823 15.648 22.9823H13.521V26.0003H12.466V17.5453H15.66ZM9.54601 25.9993H10.554V19.6833H9.54601V25.9993ZM9.34601 17.7613C9.34601 17.3753 9.66301 17.0583 10.049 17.0583C10.436 17.0583 10.753 17.3753 10.753 17.7613C10.753 18.1483 10.436 18.4653 10.049 18.4653C9.66301 18.4653 9.34601 18.1483 9.34601 17.7613Z" fill="white" fill-opacity="0.8"/>
</svg>
