<svg width="51" height="44" viewBox="0 0 51 44" fill="none" xmlns="http://www.w3.org/2000/svg">
<g clip-path="url(#clip0_1_539)">
<path d="M9.2489 17.5449H10.3563L12.8407 24.6347H12.9345L15.4189 17.5449H16.5263L13.4091 26H12.3661L9.2489 17.5449ZM17.5956 17.7617C17.5956 17.375 17.912 17.0586 18.2987 17.0586C18.6854 17.0586 19.0018 17.375 19.0018 17.7617C19.0018 18.1484 18.6854 18.4648 18.2987 18.4648C17.912 18.4648 17.5956 18.1484 17.5956 17.7617ZM17.7831 19.6836H18.8026V26H17.7831V19.6836ZM20.2821 24.3887H21.3251C21.495 24.916 21.9989 25.2617 22.8075 25.2617C23.6571 25.2617 24.2606 24.8574 24.2606 24.2832V24.2715C24.2606 23.8438 23.9383 23.5449 23.159 23.3574L22.1805 23.123C20.9969 22.8418 20.4637 22.3261 20.4637 21.4179V21.412C20.4637 20.3632 21.4715 19.5722 22.8133 19.5722C24.1375 19.5722 25.0574 20.2343 25.1981 21.2656H24.1961C24.0613 20.7676 23.5691 20.4218 22.8074 20.4218C22.0574 20.4218 21.5066 20.8085 21.5066 21.3652V21.3769C21.5066 21.8046 21.823 22.0742 22.5671 22.2558L23.5398 22.4902C24.7293 22.7773 25.3035 23.2929 25.3035 24.1953V24.207C25.3035 25.332 24.2078 26.1113 22.7723 26.1113C21.3661 26.1113 20.3993 25.4317 20.2821 24.3887ZM26.6024 17.7617C26.6024 17.375 26.9188 17.0586 27.3055 17.0586C27.6922 17.0586 28.0086 17.375 28.0086 17.7617C28.0086 18.1484 27.6922 18.4648 27.3055 18.4648C26.9188 18.4648 26.6024 18.1484 26.6024 17.7617ZM26.7899 19.6836H27.8094V26H26.7899V19.6836ZM29.2948 22.8477V22.836C29.2948 20.8087 30.4081 19.5723 32.2069 19.5723C34.0057 19.5723 35.119 20.8086 35.119 22.836V22.8477C35.119 24.8692 34.0057 26.1114 32.2069 26.1114C30.4081 26.1114 29.2948 24.8692 29.2948 22.8477ZM34.076 22.8477V22.836C34.076 21.3419 33.4022 20.4747 32.2069 20.4747C31.0116 20.4747 30.3378 21.3419 30.3378 22.836V22.8477C30.3378 24.336 31.0116 25.209 32.2069 25.209C33.4022 25.209 34.076 24.336 34.076 22.8477ZM36.5809 19.6836H37.6004V20.6328H37.6942C38.0106 19.9648 38.6024 19.5723 39.534 19.5723C40.952 19.5723 41.743 20.4102 41.743 21.9102V26H40.7235V22.1562C40.7235 21.0195 40.2547 20.4746 39.2469 20.4746C38.2391 20.4746 37.6004 21.1543 37.6004 22.2617V26H36.5809V19.6836Z" fill="white" fill-opacity="0.8"/>
</g>
<defs>
<clipPath id="clip0_1_539">
<rect width="34" height="44" fill="white" transform="translate(8.8446)"/>
</clipPath>
</defs>
</svg>
