<svg width="40" height="44" viewBox="0 0 40 44" fill="none" xmlns="http://www.w3.org/2000/svg">
<g clip-path="url(#clip0_1_519)">
<path d="M16.4374 25.9988V19.5418H16.3671L13.7011 25.9988H12.8104L10.1444 19.5418H10.0741V25.9988H9.08966V17.5437H10.3143L13.2088 24.5984H13.3026L16.1971 17.5437H17.4217V25.9988H16.4374ZM18.954 24.2292C18.954 23.0983 19.786 22.448 21.2567 22.3601L23.079 22.2488V21.6746C23.079 20.8953 22.5927 20.4676 21.6493 20.4676C20.8934 20.4676 20.3661 20.7547 20.2255 21.2528H19.206C19.3408 20.2391 20.3369 19.5712 21.6845 19.5712C23.2255 19.5712 24.0868 20.3622 24.0868 21.6747V25.9989H23.1259V25.0671H23.0321C22.6219 25.7409 21.9305 26.1101 21.0868 26.1101C19.8622 26.1101 18.954 25.3835 18.954 24.2292ZM23.079 23.6433V23.0632L21.3798 23.1745C20.4189 23.239 19.997 23.5729 19.997 24.2057C19.997 24.8502 20.5419 25.2252 21.2743 25.2252C22.3114 25.2253 23.079 24.5456 23.079 23.6433ZM30.037 21.616C29.8729 20.989 29.3163 20.4793 28.4081 20.4793C27.2714 20.4793 26.5565 21.3875 26.5565 22.8172C26.5565 24.2762 27.2831 25.202 28.4081 25.202C29.2577 25.202 29.8495 24.8094 30.037 24.0946H31.0565C30.8749 25.2548 29.9315 26.1102 28.4139 26.1102C26.6444 26.1102 25.5135 24.827 25.5135 22.8172C25.5135 20.8484 26.6385 19.5711 28.408 19.5711C29.9432 19.5711 30.8807 20.491 31.0564 21.616H30.037Z" fill="white" fill-opacity="0.8"/>
</g>
<defs>
<clipPath id="clip0_1_519">
<rect width="23" height="44" fill="white" transform="translate(8.28156)"/>
</clipPath>
</defs>
</svg>
