<svg width="47" height="44" viewBox="0 0 47 44" fill="none" xmlns="http://www.w3.org/2000/svg">
<g clip-path="url(#clip0_1_514)">
<path d="M34.7087 20.4629C35.7107 20.4629 36.3787 21.2009 36.4017 22.3199H32.9217C32.9977 21.2009 33.7007 20.4629 34.7087 20.4629ZM37.4627 23.1349V22.7479C37.4627 20.7849 36.4257 19.5719 34.7207 19.5719C32.9857 19.5719 31.8727 20.8609 31.8727 22.8479C31.8727 24.8459 32.9687 26.1109 34.7207 26.1109C36.1037 26.1109 37.0877 25.4429 37.3807 24.3649H36.3727C36.1087 24.9219 35.5587 25.2209 34.7437 25.2209C33.6717 25.2209 32.9747 24.4299 32.9217 23.1819V23.1349H37.4627ZM27.9157 19.6839H28.8757V20.6209H28.9697C29.1577 20.0059 29.8837 19.5719 30.7217 19.5719C30.8857 19.5719 31.0967 19.5839 31.2257 19.6019V20.6089C31.1437 20.5859 30.7807 20.5509 30.5817 20.5509C29.6207 20.5509 28.9227 21.6489 28.9227 22.0859V25.9999H27.9157V19.6839ZM23.6457 25.2029C22.4507 25.2029 21.7767 24.3359 21.7767 22.8419C21.7767 21.3419 22.4507 20.4809 23.6457 20.4809C24.8417 20.4809 25.5157 21.3419 25.5157 22.8419C25.5157 24.3359 24.8417 25.2029 23.6457 25.2029ZM23.6457 19.5719C21.8477 19.5719 20.7337 20.8089 20.7337 22.8419C20.7337 24.8689 21.8477 26.1109 23.6457 26.1109C25.4447 26.1109 26.5587 24.8689 26.5587 22.8419C26.5587 20.8089 25.4447 19.5719 23.6457 19.5719ZM18.1677 18.0969V19.7319H19.5747V20.5749H18.1677V24.1499C18.1677 24.8939 18.4497 25.2099 19.1057 25.2099C19.2877 25.2099 19.3867 25.2039 19.5747 25.1869V26.0359C19.3757 26.0709 19.1817 26.0949 18.9827 26.0949C17.6817 26.0949 17.1607 25.6139 17.1607 24.4069V20.5749H16.1407V19.7319H17.1607V18.0969H18.1677ZM10.0647 23.7909C10.1937 24.6759 11.0377 25.2379 12.2387 25.2379C13.3757 25.2379 14.2137 24.6229 14.2137 23.7849C14.2137 23.0649 13.6867 22.6079 12.5207 22.3149L11.4367 22.0329C9.90666 21.6469 9.24466 20.9549 9.24466 19.7539C9.24466 18.3179 10.4457 17.3459 12.2327 17.3459C13.8677 17.3459 15.0867 18.3179 15.1747 19.6839H14.1137C13.9677 18.8169 13.2527 18.3009 12.1977 18.3009C11.0727 18.3009 10.3287 18.8629 10.3287 19.7189C10.3287 20.3809 10.7917 20.7619 11.9577 21.0609L12.8427 21.2949C14.5947 21.7339 15.2977 22.4139 15.2977 23.6559C15.2977 25.2089 14.0727 26.1989 12.1397 26.1989C10.3467 26.1989 9.10966 25.2499 8.99866 23.7909H10.0647Z" fill="white" fill-opacity="0.8"/>
</g>
<defs>
<clipPath id="clip0_1_514">
<rect width="30" height="44" fill="white" transform="translate(8.14075)"/>
</clipPath>
</defs>
</svg>
