<svg width="94" height="44" viewBox="0 0 94 44" fill="none" xmlns="http://www.w3.org/2000/svg">
<g clip-path="url(#clip0_1_556)">
<path d="M8.26691 17.4863H13.5052V18.4355H9.32161V21.1484H13.2884V22.0859H9.32161V24.9921H13.5052V25.9413H8.26691V17.4863ZM15.1663 19.625H16.1858V20.5742H16.2796C16.596 19.9062 17.1878 19.5137 18.1194 19.5137C19.5374 19.5137 20.3284 20.3516 20.3284 21.8516V25.9414H19.3089V22.0976C19.3089 20.9609 18.8401 20.416 17.8323 20.416C16.8245 20.416 16.1858 21.0957 16.1858 22.2031V25.9414H15.1663V19.625ZM22.4466 24.3008V20.4688H21.4505V19.625H22.4466V17.9902H23.5013V19.625H24.8841V20.4688H23.5013V24.043C23.5013 24.7871 23.7591 25.086 24.4154 25.086C24.597 25.086 24.6966 25.0801 24.8842 25.0626V25.9298C24.685 25.965 24.4916 25.9884 24.2924 25.9884C22.9915 25.9883 22.4466 25.5078 22.4466 24.3008ZM25.8831 22.8066V22.8007C25.8831 20.8495 26.9964 19.5136 28.7132 19.5136C30.43 19.5136 31.473 20.7909 31.473 22.6777V23.0761H26.9261C26.9554 24.3827 27.6761 25.1445 28.8011 25.1445C29.6566 25.1445 30.1839 24.7402 30.3538 24.3593L30.3772 24.3066H31.3967L31.385 24.3535C31.1682 25.209 30.2659 26.0527 28.7776 26.0527C26.973 26.0527 25.8831 24.7871 25.8831 22.8066ZM26.9437 22.2617H30.4359C30.3304 21.0137 29.639 20.4219 28.7074 20.4219C27.7698 20.4219 27.055 21.0605 26.9437 22.2617ZM32.9349 19.625H33.9544V20.5625H34.0482C34.2884 19.9004 34.8802 19.5137 35.7357 19.5137C35.9291 19.5137 36.1459 19.5371 36.2455 19.5547V20.5449C36.0346 20.5097 35.8412 20.4863 35.6185 20.4863C34.6458 20.4863 33.9544 21.1015 33.9544 22.0273V25.9414H32.9349V19.625ZM37.9007 24.3008V20.4688H36.9046V19.625H37.9007V17.9902H38.9554V19.625H40.3382V20.4688H38.9554V24.043C38.9554 24.7871 39.2132 25.086 39.8695 25.086C40.0511 25.086 40.1507 25.0801 40.3383 25.0626V25.9298C40.1391 25.965 39.9457 25.9884 39.7465 25.9884C38.4456 25.9883 37.9007 25.5078 37.9007 24.3008ZM41.3665 24.1777V24.166C41.3665 23.041 42.1985 22.3906 43.6692 22.3027L45.4797 22.1914V21.6172C45.4797 20.8379 45.0051 20.416 44.0617 20.416C43.3058 20.416 42.8078 20.6972 42.6437 21.1894L42.6378 21.207H41.6183L41.6242 21.1718C41.7883 20.1816 42.7492 19.5136 44.0969 19.5136C45.6379 19.5136 46.4992 20.3046 46.4992 21.6171V25.9413H45.4797V25.0097H45.3859C44.9875 25.6835 44.3254 26.0527 43.4757 26.0527C42.2747 26.0527 41.3665 25.3262 41.3665 24.1777ZM43.6868 25.168C44.7239 25.168 45.4798 24.4883 45.4798 23.586V23.0118L43.7923 23.1173C42.8314 23.1759 42.4095 23.5157 42.4095 24.1427V24.1544C42.4095 24.793 42.9544 25.168 43.6868 25.168ZM48.0794 17.7031C48.0794 17.3164 48.3958 17 48.7825 17C49.1692 17 49.4856 17.3164 49.4856 17.7031C49.4856 18.0898 49.1692 18.4062 48.7825 18.4062C48.3958 18.4062 48.0794 18.0898 48.0794 17.7031ZM48.2669 19.625H49.2864V25.9414H48.2669V19.625ZM51.0882 19.625H52.1077V20.5742H52.2015C52.5179 19.9062 53.1097 19.5137 54.0413 19.5137C55.4593 19.5137 56.2503 20.3516 56.2503 21.8516V25.9414H55.2308V22.0976C55.2308 20.9609 54.762 20.416 53.7542 20.416C52.7464 20.416 52.1077 21.0957 52.1077 22.2031V25.9414H51.0882V19.625ZM57.97 19.625H58.9895V20.5859H59.0833C59.3645 19.9062 59.9622 19.5136 60.7884 19.5136C61.6439 19.5136 62.2415 19.9648 62.5345 20.621H62.6283C62.9681 19.953 63.6888 19.5136 64.5619 19.5136C65.851 19.5136 66.5717 20.2519 66.5717 21.5761V25.9413H65.5522V21.8104C65.5522 20.8788 65.1245 20.4159 64.2338 20.4159C63.3549 20.4159 62.7748 21.078 62.7748 21.8807V25.9412H61.7553V21.6521C61.7553 20.9021 61.2397 20.4158 60.4428 20.4158C59.6166 20.4158 58.9897 21.1365 58.9897 22.0271V25.9412H57.9702L57.97 19.625ZM67.9749 22.8066V22.8007C67.9749 20.8495 69.0882 19.5136 70.805 19.5136C72.5218 19.5136 73.5648 20.7909 73.5648 22.6777V23.0761H69.0179C69.0472 24.3827 69.7679 25.1445 70.8929 25.1445C71.7484 25.1445 72.2757 24.7402 72.4456 24.3593L72.469 24.3066H73.4885L73.4769 24.3535C73.2601 25.209 72.3578 26.0527 70.8695 26.0527C69.0648 26.0527 67.9749 24.7871 67.9749 22.8066ZM69.0355 22.2617H72.5277C72.4222 21.0137 71.7308 20.4219 70.7992 20.4219C69.8616 20.4219 69.1468 21.0605 69.0355 22.2617ZM75.0267 19.625H76.0462V20.5742H76.14C76.4564 19.9062 77.0482 19.5137 77.9798 19.5137C79.3978 19.5137 80.1888 20.3516 80.1888 21.8516V25.9414H79.1693V22.0976C79.1693 20.9609 78.7005 20.416 77.6927 20.416C76.6849 20.416 76.0462 21.0957 76.0462 22.2031V25.9414H75.0267V19.625ZM82.3069 24.3008V20.4688H81.3108V19.625H82.3069V17.9902H83.3616V19.625H84.7444V20.4688H83.3616V24.043C83.3616 24.7871 83.6194 25.086 84.2757 25.086C84.4573 25.086 84.5569 25.0801 84.7445 25.0626V25.9298C84.5453 25.965 84.3519 25.9884 84.1527 25.9884C82.8519 25.9883 82.3069 25.5078 82.3069 24.3008Z" fill="white" fill-opacity="0.8"/>
</g>
<defs>
<clipPath id="clip0_1_556">
<rect width="77" height="44" fill="white" transform="translate(8.26691)"/>
</clipPath>
</defs>
</svg>
