<svg width="41" height="44" viewBox="0 0 41 44" fill="none" xmlns="http://www.w3.org/2000/svg">
<path d="M23.3798 23.7001C23.3798 24.6021 22.6118 25.2821 21.5748 25.2821C20.8428 25.2821 20.2978 24.9071 20.2978 24.2621C20.2978 23.6301 20.7198 23.2961 21.6808 23.2311L23.3798 23.1201V23.7001ZM21.9848 19.6281C20.6378 19.6281 19.6418 20.2961 19.5068 21.3091H20.5258C20.6668 20.8111 21.1938 20.5241 21.9498 20.5241C22.8938 20.5241 23.3798 20.9521 23.3798 21.7311V22.3051L21.5578 22.4171C20.0868 22.5051 19.2548 23.1551 19.2548 24.2861C19.2548 25.4401 20.1628 26.1671 21.3878 26.1671C22.2318 26.1671 22.9228 25.7981 23.3328 25.1241H23.4268V26.0551H24.3878V21.7311C24.3878 20.4191 23.5258 19.6281 21.9848 19.6281ZM28.7538 25.2031C27.5988 25.2031 26.9078 24.3181 26.9078 22.8421C26.9078 21.3711 27.6048 20.4801 28.7538 20.4801C29.8958 20.4801 30.6108 21.3941 30.6108 22.8421C30.6108 24.3011 29.9018 25.2031 28.7538 25.2031ZM30.5878 17.1761V20.6791H30.4998C30.1418 19.9881 29.3978 19.5721 28.5188 19.5721C26.9138 19.5721 25.8648 20.8611 25.8648 22.8421C25.8648 24.8281 26.9018 26.1111 28.5188 26.1111C29.3918 26.1111 30.1418 25.6951 30.5408 24.9921H30.6338V26.0001H31.5948V17.1761H30.5878ZM15.1938 22.0451H13.3308V18.4821H15.1938C16.4188 18.4821 17.0928 19.1211 17.0928 20.2811C17.0928 21.4001 16.3958 22.0451 15.1938 22.0451ZM15.4698 17.5451H12.2758V26.0001H13.3308V22.9821H15.4578C17.0458 22.9821 18.1768 21.8631 18.1768 20.2811C18.1768 18.6701 17.0688 17.5451 15.4698 17.5451ZM9.40579 25.9991H10.4138V19.6831H9.40579V25.9991ZM9.20679 17.7621C9.20679 17.3751 9.52279 17.0581 9.90979 17.0581C10.2968 17.0581 10.6128 17.3751 10.6128 17.7621C10.6128 18.1481 10.2968 18.4651 9.90979 18.4651C9.52279 18.4651 9.20679 18.1481 9.20679 17.7621Z" fill="white" fill-opacity="0.8"/>
</svg>
