<svg width="61" height="44" viewBox="0 0 61 44" fill="none" xmlns="http://www.w3.org/2000/svg">
<g clip-path="url(#clip0_1_566)">
<path d="M50.669 18.0338V19.6688H52.075V20.5128H50.669V24.0868C50.669 24.8308 50.95 25.1468 51.606 25.1468C51.788 25.1468 51.888 25.1408 52.075 25.1238V25.9728C51.876 26.0088 51.683 26.0318 51.483 26.0318C50.183 26.0318 49.661 25.5518 49.661 24.3448V20.5128H48.642V19.6688H49.661V18.0338H50.669ZM44.538 19.6688H45.499V20.6058H45.592C45.78 19.9908 46.506 19.5568 47.344 19.5568C47.508 19.5568 47.719 19.5688 47.848 19.5868V20.5948C47.766 20.5708 47.403 20.5358 47.204 20.5358C46.243 20.5358 45.545 21.1798 45.545 22.0708V25.9848H44.538V19.6688ZM42.075 22.8268C42.075 21.3268 41.401 20.4658 40.206 20.4658C39.011 20.4658 38.337 21.3268 38.337 22.8268C38.337 24.3208 39.011 25.1878 40.206 25.1878C41.401 25.1878 42.075 24.3208 42.075 22.8268ZM37.294 22.8268C37.294 20.7938 38.407 19.5568 40.206 19.5568C42.005 19.5568 43.118 20.7938 43.118 22.8268C43.118 24.8538 42.005 26.0968 40.206 26.0968C38.407 26.0968 37.294 24.8538 37.294 22.8268ZM35.186 22.8268C35.186 21.3498 34.494 20.4658 33.34 20.4658C32.197 20.4658 31.477 21.3738 31.477 22.8268C31.477 24.2738 32.197 25.1878 33.334 25.1878C34.494 25.1878 35.186 24.3038 35.186 22.8268ZM36.229 22.8268C36.229 24.8018 35.18 26.0968 33.574 26.0968C32.672 26.0968 31.945 25.7038 31.6 25.0358H31.506V28.0948H30.498V19.6688H31.459V20.7228H31.553C31.957 19.9968 32.713 19.5568 33.574 19.5568C35.186 19.5568 36.229 20.8408 36.229 22.8268ZM28.181 22.8268C28.181 21.3498 27.49 20.4658 26.336 20.4658C25.193 20.4658 24.472 21.3738 24.472 22.8268C24.472 24.2738 25.193 25.1878 26.33 25.1878C27.49 25.1878 28.181 24.3038 28.181 22.8268ZM29.224 22.8268C29.224 24.8018 28.175 26.0968 26.57 26.0968C25.668 26.0968 24.941 25.7038 24.595 25.0358H24.502V28.0948H23.494V19.6688H24.455V20.7228H24.548C24.953 19.9968 25.709 19.5568 26.57 19.5568C28.181 19.5568 29.224 20.8408 29.224 22.8268ZM21.579 25.9848H20.618V24.9948H20.524C20.208 25.6978 19.534 26.0968 18.567 26.0968C17.149 26.0968 16.411 25.2528 16.411 23.7588V19.6688H17.419V23.5128C17.419 24.6488 17.841 25.1768 18.849 25.1768C19.962 25.1768 20.571 24.5138 20.571 23.4068V19.6688H21.579V25.9848ZM9.88901 23.7758C10.018 24.6608 10.861 25.2228 12.063 25.2228C13.199 25.2228 14.037 24.6078 14.037 23.7698C14.037 23.0498 13.51 22.5928 12.344 22.2998L11.26 22.0178C9.73101 21.6318 9.06801 20.9398 9.06801 19.7388C9.06801 18.3038 10.27 17.3308 12.057 17.3308C13.691 17.3308 14.91 18.3038 14.998 19.6688H13.938C13.791 18.8018 13.076 18.2858 12.022 18.2858C10.897 18.2858 10.152 18.8478 10.152 19.7038C10.152 20.3658 10.615 20.7468 11.781 21.0458L12.666 21.2798C14.418 21.7198 15.121 22.3988 15.121 23.6408C15.121 25.1938 13.897 26.1838 11.963 26.1838C10.17 26.1838 8.93401 25.2348 8.82201 23.7758H9.88901Z" fill="white" fill-opacity="0.8"/>
</g>
<defs>
<clipPath id="clip0_1_566">
<rect width="44" height="44" fill="white" transform="translate(8.5484)"/>
</clipPath>
</defs>
</svg>
