<svg width="82" height="44" viewBox="0 0 82 44" fill="none" xmlns="http://www.w3.org/2000/svg">
<path d="M12.5017 26.0001V18.4942H9.77707V17.545H16.281V18.4942H13.5564V26.0001H12.5017ZM20.2331 26.0001L17.1159 17.545H18.2233L20.7077 24.6348H20.8015L23.2859 17.545H24.3933L21.2761 26.0001H20.2331ZM34.2141 25.1563C33.4934 25.7891 32.5032 26.1583 31.4778 26.1583C29.7962 26.1583 28.6184 25.1622 28.6184 23.7442C28.6184 22.7422 29.1633 21.9805 30.2942 21.3829C30.3704 21.3477 30.5286 21.2657 30.6223 21.2188C29.843 20.3985 29.5618 19.8536 29.5618 19.2383C29.5618 18.1543 30.4817 17.3457 31.718 17.3457C32.966 17.3457 33.8742 18.1426 33.8742 19.25C33.8742 20.1172 33.3527 20.75 32.0461 21.4355L34.1613 23.7089C34.425 23.1816 34.5597 22.4901 34.5597 21.4355V21.289H35.5441V21.4413C35.5441 22.7538 35.3097 23.7089 34.8468 24.4237L36.3176 26.0001H34.9934L34.2141 25.1563ZM29.6731 23.6739C29.6731 24.6231 30.4407 25.2677 31.5715 25.2677C32.3391 25.2677 33.1301 24.963 33.593 24.4767L31.2024 21.8634C31.1379 21.8868 30.9856 21.963 30.9036 22.004C30.0891 22.4259 29.6731 23.0118 29.6731 23.6739ZM32.884 19.2853C32.884 18.6291 32.4094 18.1837 31.7238 18.1837C31.05 18.1837 30.5695 18.6407 30.5695 19.297C30.5695 19.7658 30.8097 20.1759 31.4777 20.838C32.509 20.3106 32.884 19.8888 32.884 19.2853ZM46.4016 26.0001V22.1505H41.761V26.0001H40.7063V17.545H41.761V21.2012H46.4016V17.545H47.4563V26.0001H46.4016ZM49.0471 22.8419C49.0471 20.8087 50.1604 19.5724 51.9592 19.5724C53.758 19.5724 54.8713 20.8087 54.8713 22.8419C54.8713 24.8692 53.758 26.1114 51.9592 26.1114C50.1604 26.1114 49.0471 24.8692 49.0471 22.8419ZM53.8283 22.8419C53.8283 21.3419 53.1545 20.4806 51.9592 20.4806C50.7639 20.4806 50.0901 21.3419 50.0901 22.8419C50.0901 24.336 50.7639 25.2032 51.9592 25.2032C53.1545 25.2032 53.8283 24.336 53.8283 22.8419ZM56.3337 19.6837H57.2946V20.6798H57.3884C57.6755 19.9767 58.3083 19.5724 59.1521 19.5724C60.0076 19.5724 60.6052 20.0236 60.8982 20.6798H60.992C61.3318 20.0118 62.0525 19.5724 62.9256 19.5724C64.2147 19.5724 64.9354 20.3107 64.9354 21.6349V26.0001H63.9276V21.8692C63.9276 20.9376 63.4881 20.4805 62.5975 20.4805C61.7186 20.4805 61.1327 21.1367 61.1327 21.9395V26.0001H60.1249V21.711C60.1249 20.961 59.6034 20.4805 58.8065 20.4805C57.9803 20.4805 57.3417 21.1953 57.3417 22.086V26.0001H56.3339L56.3337 19.6837ZM71.8464 24.3653C71.5534 25.4434 70.5691 26.1114 69.1862 26.1114C67.4342 26.1114 66.3385 24.8458 66.3385 22.8477C66.3385 20.8614 67.4518 19.5723 69.1862 19.5723C70.8913 19.5723 71.9284 20.7852 71.9284 22.7481V23.1348H67.3874V23.1817C67.4401 24.4297 68.1374 25.2208 69.2097 25.2208C70.0242 25.2208 70.5749 24.922 70.8386 24.3653H71.8464ZM67.3874 22.3204H70.8679C70.8445 21.2013 70.1765 20.463 69.1745 20.463C68.1667 20.463 67.4636 21.2013 67.3874 22.3204Z" fill="white" fill-opacity="0.8"/>
</svg>
